# xmcd
#
# Track frame offsets:
# 150
# 16485
# 30536
# 45267
# 61377
# 80669
# 94144
# 110387
# 129532
# 146931
#
# Disc length: 2159 seconds
#
# Revision: 0
# Processed by: cddbd v1.4PL0 Copyright (c) Steve Scherf et al.
# Submitted via: Axialis_AX_CDPlayer 2.6
#
DISCID=83086d0a
DTITLE=Dolly Parton - Burlap and Satin
DYEAR=1900
DGENRE=
TTITLE0=Ooo Ee
TTITLE1=Send Me The Pillow
TTITLE2=Jealous Heart
TTITLE3=A Gamble Either Way
TTITLE4=Appalachian Memories
TTITLE5=I Really Don't Want To Know
TTITLE6=Potential New Boyfriend
TTITLE7=A Cowboy's Way
TTITLE8=One Of Those Days
TTITLE9=Calm On The Water
EXTD=
EXTT0=
EXTT1=
EXTT2=
EXTT3=
EXTT4=
EXTT5=
EXTT6=
EXTT7=
EXTT8=
EXTT9=
PLAYORDER=
